<?xml version="1.0" encoding="UTF-8"?><svg
  xmlns="http://www.w3.org/2000/svg"
  xmlns:xlink="http://www.w3.org/1999/xlink"
  contentScriptType="text/ecmascript"
  width="37.5"
  zoomAndPan="magnify"
  contentStyleType="text/css"
  viewBox="0 0 37.5 37.499999"
  height="37.499999"
  preserveAspectRatio="xMidYMid meet"
  version="1.0"
>
  <defs>
    <clipPath id="clip-0"><path d="M 0 6 L 37.007812 6 L 37.007812 31 L 0 31 Z M 0 6 " clip-rule="nonzero" /></clipPath>
  </defs>
  <path
    fill="rgb(12.939453%, 58.81958%, 95.289612%)"
    d="M 24.960938 10.042969 C 20.148438 10.042969 16.253906 13.941406 16.253906 18.75 C 16.253906 23.5625 20.152344 27.457031 24.960938 27.457031 C 29.769531 27.457031 33.667969 23.558594 33.667969 18.75 C 33.667969 13.9375 29.769531 10.042969 24.960938 10.042969 Z M 24.960938 26.304688 C 20.785156 26.304688 17.402344 22.921875 17.402344 18.75 C 17.402344 14.578125 20.785156 11.195312 24.960938 11.195312 C 29.132812 11.195312 32.515625 14.578125 32.515625 18.75 C 32.515625 22.921875 29.132812 26.304688 24.960938 26.304688 Z M 24.960938 26.304688 "
    fill-opacity="1"
    fill-rule="nonzero"
  />
  <g clip-path="url(#clip-0)">
    <path
      fill="rgb(12.939453%, 58.81958%, 95.289612%)"
      d="M 24.960938 6.585938 C 20.792969 6.585938 17.117188 8.675781 14.925781 11.871094 L 5.957031 11.871094 C 5.320312 11.871094 4.808594 12.390625 4.808594 13.023438 C 4.808594 13.660156 5.324219 14.175781 5.957031 14.175781 L 13.683594 14.175781 C 13.382812 14.910156 13.15625 15.683594 13.003906 16.480469 L 1.527344 16.480469 C 0.890625 16.480469 0.375 17 0.375 17.632812 C 0.375 18.265625 0.890625 18.785156 1.527344 18.785156 L 12.796875 18.785156 C 12.796875 19.574219 12.875 20.347656 13.019531 21.097656 L 4.476562 21.097656 C 3.839844 21.097656 3.328125 21.613281 3.328125 22.25 C 3.328125 22.886719 3.84375 23.398438 4.476562 23.398438 L 13.71875 23.398438 C 14.050781 24.203125 14.46875 24.960938 14.953125 25.667969 L 1.53125 25.667969 C 0.890625 25.667969 0.378906 26.1875 0.378906 26.820312 C 0.378906 27.457031 0.894531 27.972656 1.53125 27.972656 L 17.023438 27.972656 C 19.15625 29.804688 21.925781 30.914062 24.960938 30.914062 C 31.679688 30.914062 37.125 25.46875 37.125 18.75 C 37.125 12.03125 31.679688 6.585938 24.960938 6.585938 Z M 24.960938 28.613281 C 19.515625 28.613281 15.097656 24.199219 15.097656 18.75 C 15.097656 13.304688 19.511719 8.886719 24.960938 8.886719 C 30.40625 8.886719 34.824219 13.300781 34.824219 18.75 C 34.824219 24.195312 30.40625 28.613281 24.960938 28.613281 Z M 24.960938 28.613281 "
      fill-opacity="1"
      fill-rule="nonzero"
    />
  </g>
  <path
    fill="rgb(12.939453%, 58.81958%, 95.289612%)"
    d="M 25.914062 17.660156 C 24.9375 17.273438 24.378906 17.015625 24.230469 16.894531 C 24.082031 16.773438 24.007812 16.648438 24.007812 16.53125 C 24.007812 16.054688 24.355469 15.816406 25.050781 15.816406 C 25.992188 15.816406 27.019531 16.15625 28.121094 16.828125 L 28.121094 14.769531 C 27.429688 14.414062 26.675781 14.203125 25.855469 14.125 L 25.855469 12.570312 L 23.636719 12.570312 L 23.636719 14.28125 C 23.160156 14.410156 22.742188 14.609375 22.382812 14.878906 C 21.6875 15.40625 21.332031 16.089844 21.332031 16.925781 C 21.332031 17.492188 21.515625 18.007812 21.882812 18.46875 C 22.246094 18.929688 22.921875 19.355469 23.90625 19.738281 C 24.890625 20.125 25.472656 20.394531 25.644531 20.554688 C 25.820312 20.710938 25.90625 20.875 25.90625 21.046875 C 25.90625 21.503906 25.4375 21.726562 24.503906 21.726562 C 23.703125 21.726562 22.710938 21.46875 21.527344 20.949219 L 21.527344 22.984375 C 22.171875 23.285156 22.875 23.472656 23.632812 23.574219 L 23.632812 24.914062 L 25.851562 24.914062 L 25.851562 23.578125 C 26.566406 23.464844 27.152344 23.238281 27.601562 22.878906 C 28.25 22.359375 28.574219 21.617188 28.574219 20.664062 C 28.574219 20.058594 28.371094 19.5 27.972656 18.992188 C 27.574219 18.496094 26.886719 18.046875 25.914062 17.660156 Z M 25.914062 17.660156 "
    fill-opacity="1"
    fill-rule="nonzero"
  />
</svg>
